<svg width="519" height="442" viewBox="0 0 519 442" fill="none" xmlns="http://www.w3.org/2000/svg">
<path d="M143.333 252.278C143.136 248.724 118.157 245.861 87.3534 245.861C56.5497 245.861 31.6697 248.724 31.3735 252.278C31.3735 252.278 31.3735 252.278 31.3735 252.377C31.4723 255.931 56.5497 258.893 87.3534 258.893C118.157 258.893 143.234 255.931 143.333 252.278C143.333 252.377 143.333 252.278 143.333 252.278ZM87.3534 257.807C61.3875 257.807 40.2592 255.339 40.1605 252.377C40.1605 252.377 40.1605 252.377 40.1605 252.278C40.358 249.218 61.3875 246.848 87.3534 246.848C113.319 246.848 134.349 249.316 134.546 252.278V252.377C134.447 255.339 113.418 257.807 87.3534 257.807Z" fill="#E8D4C1"/>
<path d="M87.3535 257.807C113.319 257.807 134.448 255.339 134.546 252.377V252.278C134.349 249.218 113.319 246.848 87.3535 246.848C61.3876 246.848 40.3581 249.316 40.1606 252.278C40.1606 252.278 40.1606 252.278 40.1606 252.377C40.2594 255.339 61.3876 257.807 87.3535 257.807Z" fill="#BA9C7E"/>
<path d="M90.019 258.4C88.1432 230.361 84.3915 202.519 78.8626 174.973C73.3338 147.526 66.0277 120.474 57.0433 93.9161C51.9093 78.9092 46.2817 64.1983 40.1605 49.5863C39.8643 49.0927 39.3707 48.7965 38.8771 48.599C38.3834 48.5003 37.7909 48.5005 37.2973 48.7967C36.8037 49.0929 36.5075 49.5863 36.31 50.08C36.2113 50.5736 36.2113 51.1661 36.5075 51.6597C47.3678 77.3295 56.4509 103.592 63.9543 130.446C71.3591 157.103 76.9867 184.155 80.9359 211.503C83.108 227.004 84.7864 242.603 85.8724 258.301C85.9712 261.164 90.2165 261.164 90.019 258.4Z" fill="#4C7378"/>
<path d="M104.433 263.731C102.952 219.895 104.73 176.059 109.962 132.421C111.443 120.277 113.122 108.133 115.195 95.9893C115.59 93.3236 111.542 92.139 111.147 94.9035C103.94 138.345 100.188 182.279 99.7932 226.313C99.6945 238.753 99.7932 251.193 100.287 263.633C100.287 266.496 104.532 266.496 104.433 263.731Z" fill="#4C7378"/>
<path d="M79.7512 267.68C73.4324 232.532 59.4129 199.162 38.8771 169.938C33.1508 161.743 26.8321 153.943 20.1185 146.539C18.2426 144.564 15.2807 147.526 17.1566 149.599C40.753 175.664 58.3268 206.665 68.6935 240.233C71.5566 249.612 73.9261 259.189 75.7033 268.865C76.1969 271.53 80.3435 270.444 79.7512 267.68Z" fill="#4C7378"/>
<path d="M42.036 229.67L31.7681 224.733L22.8824 220.586C17.6497 218.118 13.7994 216.045 13.7006 214.268C13.6019 212.589 17.3536 210.022 24.166 208.739C25.0545 208.64 25.9431 208.443 26.8316 208.344C27.7202 208.245 28.7075 208.245 29.6948 208.146C31.8669 208.048 34.0389 208.245 36.1122 208.443C41.0487 209.134 45.7878 210.516 50.2307 212.688C54.6735 214.86 58.6227 217.822 62.1769 221.277C63.6579 222.857 65.04 224.437 66.3235 226.214C66.9159 227.004 67.4095 227.794 67.9032 228.682C68.3968 229.472 68.7918 230.262 69.1867 231.052C72.2473 237.173 72.3461 241.715 71.4576 242.504C70.1741 243.393 66.2248 241.616 60.9921 239.049L52.2052 234.606L42.036 229.67Z" fill="#4C7378"/>
<path d="M11.9238 151.179C6.78984 142.491 3.13686 133.013 0.964807 123.14C-0.51614 115.538 -0.219926 110.206 1.35975 109.515C2.8407 108.824 6.78989 112.181 11.7264 117.907C17.8476 125.312 23.3765 133.309 28.1155 141.603C32.9533 149.896 37.0999 158.683 40.358 167.766C42.925 174.973 43.9123 180.008 42.925 180.798C41.9377 181.588 37.0012 179.416 30.9787 174.381C23.3765 167.766 16.959 159.867 11.9238 151.179Z" fill="#689399"/>
<path d="M46.9728 176.059C43.0236 152.463 46.2817 132.42 49.6385 132.025C52.9953 131.63 61.5849 149.698 65.5341 172.998C69.4833 196.298 66.3239 216.439 63.8556 216.933C60.8937 217.427 50.922 199.655 46.9728 176.059Z" fill="#57848A"/>
<path d="M28.7077 48.5988C25.0547 37.7385 22.7839 26.4834 21.9941 15.1295C21.5004 6.24383 22.4878 0.517459 24.0675 0.0238101C25.6472 -0.371109 29.2013 4.17046 33.348 11.8714C38.5807 21.7444 42.9248 32.0124 46.4791 42.5764C50.0334 53.1405 52.6003 64.0994 54.0812 75.0584C55.266 83.7467 55.1673 89.5718 53.9825 89.9667C52.6003 90.5591 48.355 86.5112 43.4185 79.1065C37.2973 69.8259 32.262 59.4591 28.7077 48.5988Z" fill="#57848A"/>
<path d="M55.8585 82.3645C54.9699 59.8541 59.8077 41.2928 63.1645 41.0954C66.5214 40.8979 73.7286 58.8666 74.6172 81.6732C75.5057 104.381 68.8908 122.942 66.4226 122.942C63.3619 123.041 56.7471 104.875 55.8585 82.3645Z" fill="#4C7378"/>
<path d="M38.0868 115.636C33.2491 111.49 29.0037 106.652 25.5482 101.222C22.8825 96.779 21.6977 93.1261 22.685 91.7439C23.6723 90.3617 27.424 90.263 32.6567 91.7439C39.1729 93.6198 45.0967 96.9766 50.2306 101.321C55.3646 105.764 59.5112 111.194 62.2756 117.414C64.4477 122.35 64.8426 126.2 64.0528 127.089C62.9668 128.175 59.1163 127.583 54.2785 125.608C48.4535 123.239 42.9246 119.882 38.0868 115.636Z" fill="#689399"/>
<path d="M87.2549 206.962C84.4905 199.557 82.3184 192.053 80.8375 184.254C79.7514 178.034 79.6526 173.591 81.1336 172.702C82.6145 171.814 86.5638 173.986 91.3028 178.725C97.2266 184.945 101.867 192.35 104.829 200.347C107.889 208.443 109.074 217.032 108.482 225.621C107.889 232.335 106.211 236.58 105.026 236.778C103.447 237.074 100.583 233.717 97.3253 228.188C93.3761 221.574 89.9206 214.366 87.2549 206.962Z" fill="#4C7378"/>
<path d="M99.7932 199.36C102.261 190.573 106.013 182.279 111.048 174.677C115.096 168.753 118.749 165.693 120.329 166.186C121.909 166.68 122.6 171.419 122.304 178.429C121.81 187.216 120.329 196.003 117.861 204.395C115.491 212.886 112.036 221.179 107.79 228.88C104.335 235.001 101.175 238.654 99.9906 238.358C98.5097 238.062 96.9301 233.421 96.6339 226.313C96.239 217.328 97.325 208.147 99.7932 199.36Z" fill="#57848A"/>
<path d="M110.555 129.36C113.813 121.264 118.552 113.859 124.279 107.343C128.82 102.308 132.868 99.8399 134.349 100.63C135.83 101.42 135.929 105.961 134.843 112.576C133.362 120.77 130.992 128.866 127.833 136.567C126.056 140.813 124.081 144.86 121.81 148.81C119.935 152.068 117.96 155.227 115.689 158.288C113.912 160.756 112.431 162.731 111.345 164.31C110.259 165.89 109.568 166.976 108.976 166.976C108.383 166.976 107.1 166.186 106.112 164.014C105.026 161.151 104.533 158.09 104.73 154.931C104.928 150.883 105.421 146.934 106.31 142.985C107.396 138.344 108.778 133.803 110.555 129.36Z" fill="#689399"/>
<path d="M85.7737 110.897C80.3436 91.5464 81.2321 74.17 84.3915 73.1827C87.6496 72.1954 98.3123 86.1163 103.841 105.764C109.37 125.411 106.704 143.182 104.335 143.774C101.373 144.466 91.2039 130.15 85.7737 110.897Z" fill="#4C7378"/>
<path d="M104.828 72.0967C106.112 61.2364 108.876 50.6723 112.924 40.5032C116.182 32.6048 119.44 28.0632 121.119 28.3593C124.278 29.0505 126.549 49.8825 123.389 74.3675C122.007 84.9316 119.638 95.3971 116.182 105.566C113.418 113.465 110.752 118.401 109.567 118.302C107.988 118.204 106.013 112.971 104.828 104.579C103.446 93.9161 103.446 82.957 104.828 72.0967Z" fill="#4C7378"/>
<path d="M87.3534 258.893C117.762 258.893 142.445 256.03 143.333 252.575L138.792 305.593C138.792 330.769 115.689 351.304 87.3534 351.304C59.0179 351.304 35.9152 330.769 35.9152 305.593L31.3735 252.575C32.0646 256.03 56.8459 258.893 87.3534 258.893Z" fill="#DEC7B2"/>
<path d="M141.358 275.283C137.508 275.381 133.855 276.961 131.189 279.726C125.463 285.353 121.909 293.943 117.169 300.36C115.491 296.806 113.911 293.252 112.529 289.599C110.95 285.156 104.927 281.108 100.385 284.662C95.5477 288.315 91.5985 292.955 88.5379 298.188C85.7734 302.73 83.5026 308.357 79.2572 311.714C74.9131 315.169 70.3716 316.058 68.6932 310.134C67.2122 304.902 67.7059 299.274 66.0275 294.041C64.6453 289.697 62.3745 285.156 57.9316 283.28C52.6002 281.009 47.5651 283.872 42.826 286.242C40.0616 287.624 37.2971 289.204 34.5327 290.882L35.52 302.039C40.3578 298.978 46.1828 295.325 51.1192 294.634C54.1799 294.14 53.9825 296.312 54.18 299.175C54.3774 301.841 54.3774 304.408 54.4761 307.074C54.7723 312.405 55.5622 317.737 58.7215 322.179C65.4351 331.657 78.0725 331.263 86.9582 325.24C91.4998 321.982 95.449 317.835 98.3121 312.997C99.2994 311.516 100.287 309.739 101.274 308.16C105.124 317.045 110.95 324.944 120.625 321.686C126.648 319.612 130.498 313.096 134.052 308.16C135.138 306.679 137.113 302.927 139.285 299.669L141.358 275.283Z" fill="#EBDBCD"/>
<path d="M75.308 140.22C77.48 128.965 81.0344 118.006 85.8721 107.639C89.8213 99.6422 93.3755 95.0019 95.0539 95.3969C98.2133 96.2854 98.8057 118.302 93.7705 143.774C92.487 150.192 91.0061 156.214 89.3277 161.644C87.6493 167.075 86.0696 171.616 84.8848 175.368C83.7001 179.218 83.009 182.378 82.5153 184.846C82.0217 187.215 81.6267 188.795 81.0344 188.993C80.442 189.19 78.9611 188.302 77.3814 185.932C75.4068 182.575 74.0246 178.922 73.4322 175.072C72.6424 169.642 72.4449 164.211 72.9386 158.781C73.3335 152.66 74.1232 146.44 75.308 140.22Z" fill="#57848A"/>
<path d="M143.136 251.884H134.349C134.447 251.983 134.546 252.18 134.546 252.279V252.377C134.447 255.438 113.319 257.808 87.3532 257.808C61.3873 257.808 40.259 255.339 40.1603 252.377C40.1603 252.377 40.1603 252.377 40.1603 252.279C40.1603 252.18 40.2591 251.983 40.3578 251.884H31.6696C31.5708 251.983 31.4722 252.18 31.4722 252.279C31.4722 252.279 31.4722 252.279 31.4722 252.377C31.5709 255.932 56.6482 258.893 87.4519 258.893C118.256 258.893 143.333 256.03 143.432 252.377V252.279C143.333 252.18 143.234 251.983 143.136 251.884Z" fill="#E8D4C1"/>
<path d="M507.646 210.22C507.35 210.121 507.053 209.825 506.856 209.529C506.659 209.232 506.658 208.837 506.757 208.541C506.856 208.146 507.053 207.85 507.35 207.653C507.646 207.455 507.942 207.357 508.337 207.357H515.84V199.853C515.84 199.458 516.038 199.063 516.334 198.767C516.63 198.471 517.025 198.273 517.42 198.273C517.815 198.273 518.21 198.471 518.506 198.767C518.802 199.063 519 199.458 519 199.853V210.417H508.436C508.041 210.319 507.843 210.319 507.646 210.22Z" fill="#110580"/>
<path d="M353.924 210.121C353.628 210.022 353.332 209.726 353.134 209.43C352.937 209.134 352.937 208.739 353.036 208.443C353.134 208.048 353.332 207.751 353.529 207.554C353.825 207.357 354.122 207.258 354.516 207.258H373.769C374.164 207.258 374.559 207.455 374.855 207.752C375.151 208.048 375.349 208.443 375.349 208.838C375.349 209.232 375.151 209.627 374.855 209.924C374.559 210.22 374.164 210.417 373.769 210.417H354.516C354.319 210.22 354.121 210.22 353.924 210.121ZM392.429 210.121C392.132 210.022 391.836 209.726 391.639 209.43C391.442 209.134 391.441 208.739 391.441 208.344C391.54 207.949 391.738 207.653 392.034 207.455C392.33 207.258 392.725 207.159 393.021 207.159H412.175C412.569 207.159 412.965 207.357 413.261 207.653C413.557 207.949 413.754 208.344 413.754 208.739C413.754 209.134 413.557 209.529 413.261 209.825C412.965 210.121 412.569 210.318 412.175 210.318H392.922C392.824 210.22 392.626 210.22 392.429 210.121ZM430.835 210.121C430.538 210.022 430.242 209.726 430.045 209.43C429.847 209.134 429.847 208.739 429.946 208.443C430.045 208.048 430.242 207.751 430.44 207.554C430.736 207.357 431.032 207.258 431.427 207.258H450.679C451.074 207.258 451.469 207.455 451.765 207.752C452.061 208.048 452.259 208.443 452.259 208.838C452.259 209.232 452.061 209.627 451.765 209.924C451.469 210.22 451.074 210.417 450.679 210.417H431.526C431.23 210.22 431.032 210.22 430.835 210.121ZM469.24 210.121C468.944 210.022 468.648 209.726 468.451 209.43C468.253 209.134 468.253 208.739 468.253 208.344C468.352 207.949 468.549 207.653 468.846 207.455C469.142 207.258 469.438 207.159 469.833 207.159H489.085C489.48 207.159 489.875 207.357 490.171 207.653C490.467 207.949 490.665 208.344 490.665 208.739C490.665 209.134 490.467 209.529 490.171 209.825C489.875 210.121 489.48 210.318 489.085 210.318H469.833C469.635 210.22 469.438 210.22 469.24 210.121Z" fill="#110580"/>
<path d="M324.798 210.219V199.655C324.798 199.26 324.996 198.866 325.292 198.569C325.588 198.273 325.983 198.076 326.378 198.076C326.773 198.076 327.168 198.273 327.464 198.569C327.76 198.866 327.958 199.26 327.958 199.655V207.159H335.461C335.856 207.159 336.251 207.356 336.547 207.652C336.844 207.949 337.041 208.344 337.041 208.739C337.041 209.133 336.844 209.528 336.547 209.824C336.251 210.121 335.856 210.318 335.461 210.318H324.798V210.219Z" fill="#110580"/>
<path d="M325.687 183.266C325.391 183.168 325.193 182.97 324.996 182.674C324.798 182.378 324.7 182.082 324.7 181.786V163.915C324.7 163.52 324.897 163.126 325.193 162.829C325.49 162.533 325.884 162.336 326.279 162.336C326.674 162.336 327.069 162.533 327.365 162.829C327.662 163.126 327.859 163.52 327.859 163.915V181.786C327.859 182.18 327.662 182.575 327.365 182.871C327.069 183.168 326.674 183.365 326.279 183.365C326.181 183.365 325.884 183.266 325.687 183.266ZM325.687 147.526C325.391 147.428 325.193 147.23 324.996 146.934C324.798 146.638 324.7 146.44 324.7 146.144V128.274C324.7 127.879 324.897 127.484 325.193 127.188C325.49 126.892 325.884 126.694 326.279 126.694C326.674 126.694 327.069 126.892 327.365 127.188C327.662 127.484 327.859 127.879 327.859 128.274V146.144C327.859 146.539 327.662 146.934 327.365 147.23C327.069 147.526 326.674 147.724 326.279 147.724C326.181 147.625 325.983 147.625 325.687 147.526ZM325.687 111.885C325.391 111.786 325.193 111.589 324.996 111.292C324.798 110.996 324.7 110.799 324.7 110.404V92.6325C324.7 92.2376 324.897 91.8426 325.193 91.5464C325.49 91.2502 325.884 91.0527 326.279 91.0527C326.674 91.0527 327.069 91.2502 327.365 91.5464C327.662 91.8426 327.859 92.2376 327.859 92.6325V110.503C327.859 110.898 327.662 111.292 327.365 111.589C327.069 111.885 326.674 112.082 326.279 112.082C326.181 111.983 325.983 111.885 325.687 111.885Z" fill="#110580"/>
<path d="M325.786 76.1446C325.489 76.0459 325.292 75.8484 325.095 75.5522C324.897 75.256 324.798 75.0585 324.798 74.7623V64.1982H335.363C335.758 64.1982 336.152 64.3957 336.449 64.6919C336.745 64.9881 336.942 65.3831 336.942 65.778C336.942 66.1729 336.745 66.5677 336.449 66.8639C336.152 67.1601 335.758 67.3575 335.363 67.3575H327.859V74.8611C327.859 75.256 327.662 75.651 327.365 75.9472C327.069 76.2434 326.674 76.4409 326.279 76.4409C326.181 76.2434 325.983 76.2434 325.786 76.1446Z" fill="#110580"/>
<path d="M354.022 67.1601C353.726 67.0614 353.529 66.864 353.331 66.5679C353.134 66.2717 353.035 66.0742 353.035 65.778C353.035 65.383 353.233 64.988 353.529 64.6918C353.825 64.3957 354.22 64.1982 354.615 64.1982H373.768C374.163 64.1982 374.558 64.3957 374.855 64.6918C375.151 64.988 375.348 65.383 375.348 65.778C375.348 66.1729 375.151 66.5677 374.855 66.8639C374.558 67.16 374.163 67.3575 373.768 67.3575H354.615C354.417 67.2588 354.22 67.2588 354.022 67.1601ZM392.428 67.1601C392.132 67.0614 391.935 66.864 391.737 66.5679C391.54 66.2717 391.441 66.0741 391.441 65.6791C391.441 65.2842 391.638 64.8894 391.935 64.5933C392.231 64.2971 392.626 64.0996 393.021 64.0996H412.273C412.668 64.0996 413.063 64.2971 413.359 64.5933C413.655 64.8894 413.853 65.2842 413.853 65.6791C413.853 66.0741 413.655 66.4691 413.359 66.7653C413.063 67.0615 412.668 67.2589 412.273 67.2589H393.021C392.922 67.2589 392.626 67.2588 392.428 67.1601ZM430.933 67.1601C430.637 67.0614 430.341 66.7652 430.143 66.469C429.946 66.1728 429.946 65.7778 429.946 65.3829C430.044 64.988 430.242 64.6919 430.538 64.4944C430.834 64.297 431.13 64.1982 431.525 64.1982H450.778C451.173 64.1982 451.568 64.3957 451.864 64.6918C452.16 64.988 452.357 65.383 452.357 65.778C452.357 66.1729 452.16 66.5677 451.864 66.8639C451.568 67.16 451.173 67.3575 450.778 67.3575H431.525C431.229 67.2588 431.13 67.2588 430.933 67.1601ZM469.339 67.1601C469.043 67.0614 468.746 66.7652 468.549 66.469C468.352 66.1728 468.351 65.7779 468.45 65.4817C468.549 65.1855 468.746 64.7907 468.944 64.5933C469.24 64.3958 469.536 64.297 469.931 64.297H489.085C489.48 64.297 489.875 64.4945 490.171 64.7907C490.467 65.0869 490.664 65.4816 490.664 65.8766C490.664 66.2715 490.467 66.6665 490.171 66.9627C489.875 67.2589 489.48 67.4563 489.085 67.4563H469.833C469.734 67.2589 469.536 67.2588 469.339 67.1601Z" fill="#110580"/>
<path d="M516.729 76.243C516.433 76.1443 516.235 75.947 516.038 75.6508C515.841 75.3546 515.742 75.1571 515.742 74.8609V67.4562H508.238C507.843 67.4562 507.449 67.2587 507.152 66.9625C506.856 66.6663 506.659 66.2713 506.659 65.8764C506.659 65.4815 506.856 65.0867 507.152 64.7905C507.449 64.4943 507.843 64.2969 508.238 64.2969H518.802V74.8609C518.802 75.2558 518.605 75.6508 518.309 75.947C518.012 76.2432 517.618 76.4407 517.223 76.4407C517.124 76.4407 516.927 76.3418 516.729 76.243Z" fill="#110580"/>
<path d="M516.729 183.365C516.433 183.266 516.235 183.069 516.038 182.773C515.84 182.477 515.742 182.279 515.742 181.983V164.113C515.742 163.718 515.939 163.323 516.235 163.027C516.532 162.731 516.926 162.533 517.321 162.533C517.716 162.533 518.111 162.731 518.407 163.027C518.704 163.323 518.901 163.718 518.901 164.113V181.983C518.901 182.378 518.704 182.773 518.407 183.069C518.111 183.365 517.716 183.563 517.321 183.563C517.124 183.464 516.926 183.464 516.729 183.365ZM516.729 147.625C516.433 147.526 516.235 147.329 516.038 147.033C515.84 146.737 515.742 146.539 515.742 146.243V128.373C515.742 127.978 515.939 127.583 516.235 127.287C516.532 126.991 516.926 126.793 517.321 126.793C517.716 126.793 518.111 126.991 518.407 127.287C518.704 127.583 518.901 127.978 518.901 128.373V146.243C518.901 146.638 518.704 147.033 518.407 147.329C518.111 147.625 517.716 147.822 517.321 147.822C517.124 147.822 516.926 147.724 516.729 147.625ZM516.729 111.984C516.433 111.885 516.235 111.687 516.038 111.391C515.84 111.095 515.742 110.898 515.742 110.503V92.6325C515.742 92.2376 515.939 91.8426 516.235 91.5464C516.532 91.2502 516.926 91.0527 517.321 91.0527C517.716 91.0527 518.111 91.2502 518.407 91.5464C518.704 91.8426 518.901 92.2376 518.901 92.6325V110.503C518.901 110.898 518.704 111.292 518.407 111.589C518.111 111.885 517.716 112.082 517.321 112.082C517.124 112.082 516.926 112.082 516.729 111.984Z" fill="#110580"/>
<path d="M437.054 86.1162H113.418C101.867 86.1162 92.5859 95.4956 92.5859 106.948V311.418C92.5859 322.969 101.965 332.25 113.418 332.25H437.054C448.606 332.25 457.886 322.87 457.886 311.418V106.948C457.886 95.4956 448.606 86.1162 437.054 86.1162Z" fill="#B3B6DE"/>
<path d="M438.535 99.2471H111.937C108.877 99.2471 106.408 101.715 106.408 104.776V309.048C106.408 312.108 108.877 314.577 111.937 314.577H438.535C441.596 314.577 444.064 312.108 444.064 309.048V104.776C444.064 101.715 441.596 99.2471 438.535 99.2471Z" fill="#E8EAF7"/>
<path d="M497.773 430.979H52.798C50.6259 430.979 48.5525 430.387 46.6767 429.4C44.8008 428.314 43.2211 426.833 42.1351 424.957C41.0491 423.081 40.4568 421.008 40.358 418.835C40.2593 416.663 40.753 414.59 41.839 412.616L86.9585 343.11C88.7356 339.852 91.3025 337.087 94.4619 335.211C97.6212 333.336 101.274 332.25 105.026 332.25H445.841C449.593 332.25 453.147 333.237 456.307 335.211C459.466 337.087 462.033 339.852 463.81 343.11L508.929 412.616C509.917 414.492 510.41 416.663 510.41 418.835C510.312 421.008 509.719 423.081 508.633 424.957C507.547 426.833 505.968 428.314 504.092 429.4C502.018 430.486 499.945 430.979 497.773 430.979Z" fill="#C5C6E3"/>
<path d="M510.312 418.145C510.41 419.823 510.114 421.501 509.522 423.081C508.929 424.661 508.041 426.043 506.856 427.228C505.671 428.412 504.289 429.4 502.71 429.992C501.13 430.683 499.55 430.979 497.872 430.979H52.8966C51.2182 430.979 49.5398 430.683 48.0588 429.992C46.4792 429.301 45.097 428.412 43.9122 427.228C42.7275 426.043 41.8388 424.562 41.2465 423.081C40.6541 421.501 40.358 419.823 40.4567 418.145V429.202C40.4567 432.46 41.8388 435.62 44.2084 437.989C46.5779 440.26 49.7373 441.642 52.9953 441.642H497.971C501.229 441.642 504.388 440.359 506.757 437.989C509.127 435.719 510.41 432.559 510.509 429.202L510.312 418.145Z" fill="#999BC9"/>
<path d="M361.921 421.995H188.65C187.959 421.995 187.268 421.797 186.675 421.501C186.083 421.205 185.589 420.711 185.194 420.119C184.799 419.527 184.602 418.835 184.602 418.144C184.602 417.453 184.701 416.762 185.096 416.17L191.908 393.857C192.5 392.771 193.29 391.981 194.277 391.29C195.265 390.697 196.45 390.401 197.634 390.401H352.739C353.924 390.401 355.108 390.697 356.096 391.29C357.083 391.882 357.972 392.771 358.465 393.857L365.277 416.17C365.574 416.762 365.771 417.453 365.771 418.144C365.771 418.835 365.574 419.527 365.179 420.119C364.784 420.711 364.29 421.205 363.698 421.501C363.303 421.797 362.612 421.995 361.921 421.995Z" fill="#D8DBF2"/>
<path d="M425.404 382.602H125.068C124.278 382.602 123.489 382.404 122.699 382.009C122.008 381.614 121.415 381.022 120.922 380.331C120.527 379.64 120.23 378.85 120.23 378.06C120.23 377.27 120.428 376.48 120.823 375.691L133.46 349.33C134.151 348.046 135.139 347.059 136.323 346.368C137.508 345.677 138.89 345.282 140.273 345.282H410.002C411.385 345.282 412.767 345.677 413.952 346.368C415.136 347.059 416.124 348.145 416.815 349.33L429.452 375.691C429.847 376.382 430.045 377.27 430.045 378.06C430.045 378.85 429.748 379.64 429.354 380.331C428.959 381.022 428.366 381.614 427.576 382.009C427.083 382.404 426.194 382.602 425.404 382.602Z" fill="#A7A9D6"/>
<path d="M106.408 118.401H444.064V309.048C444.064 309.739 443.965 310.529 443.669 311.121C443.373 311.812 442.978 312.405 442.485 312.899C441.991 313.392 441.398 313.787 440.707 314.083C440.016 314.379 439.325 314.478 438.634 314.478H112.036C110.555 314.478 109.173 313.886 108.185 312.899C107.198 311.911 106.606 310.43 106.606 309.048L106.408 118.401Z" fill="white"/>
<path d="M273.163 146.44H164.461C162.684 146.44 161.203 147.921 161.203 149.699V195.41C161.203 197.188 162.684 198.668 164.461 198.668H273.163C274.94 198.668 276.421 197.188 276.421 195.41V149.699C276.322 147.921 274.94 146.44 273.163 146.44Z" fill="#E8E8F7"/>
<path d="M386.11 210.911H299.03C297.253 210.911 295.772 212.392 295.772 214.169V283.28C295.772 285.057 297.253 286.538 299.03 286.538H386.11C387.887 286.538 389.368 285.057 389.368 283.28V214.169C389.368 212.392 387.887 210.911 386.11 210.911Z" fill="#E8E8F7"/>
<path d="M273.36 211.207H164.264C162.585 211.207 161.203 212.589 161.203 214.268C161.203 215.946 162.585 217.328 164.264 217.328H273.36C275.039 217.328 276.421 215.946 276.421 214.268C276.322 212.49 275.039 211.207 273.36 211.207Z" fill="#E8E8F7"/>
<path d="M242.754 224.634H164.264C162.585 224.634 161.203 226.017 161.203 227.695C161.203 229.373 162.585 230.755 164.264 230.755H242.754C244.432 230.755 245.815 229.373 245.815 227.695C245.716 226.017 244.334 224.634 242.754 224.634Z" fill="#E8E8F7"/>
<path d="M258.057 238.062H164.264C162.585 238.062 161.203 239.444 161.203 241.122C161.203 242.8 162.585 244.183 164.264 244.183H258.057C259.736 244.183 261.118 242.8 261.118 241.122C261.019 239.444 259.736 238.062 258.057 238.062Z" fill="#E8E8F7"/>
<path d="M273.36 266.989H164.264C162.585 266.989 161.203 268.371 161.203 270.05C161.203 271.728 162.585 273.11 164.264 273.11H273.36C275.039 273.11 276.421 271.728 276.421 270.05C276.322 268.371 275.039 266.989 273.36 266.989Z" fill="#E8E8F7"/>
<path d="M227.352 280.417H164.165C162.487 280.417 161.104 281.799 161.104 283.477C161.104 285.156 162.487 286.538 164.165 286.538H227.352C229.031 286.538 230.413 285.156 230.413 283.477C230.413 281.799 229.031 280.417 227.352 280.417Z" fill="#E8E8F7"/>
<path d="M384.728 146.44H298.537C296.858 146.44 295.476 147.823 295.476 149.501C295.476 151.18 296.858 152.562 298.537 152.562H384.728C386.406 152.562 387.788 151.18 387.788 149.501C387.69 147.823 386.406 146.44 384.728 146.44Z" fill="#E8E8F7"/>
<path d="M358.663 159.868H298.537C296.858 159.868 295.476 161.25 295.476 162.928C295.476 164.607 296.858 165.989 298.537 165.989H358.663C360.342 165.989 361.724 164.607 361.724 162.928C361.625 161.25 360.342 159.868 358.663 159.868Z" fill="#E8E8F7"/>
<path d="M370.906 173.394H298.537C296.858 173.394 295.476 174.776 295.476 176.454C295.476 178.132 296.858 179.515 298.537 179.515H370.906C372.584 179.515 373.966 178.132 373.966 176.454C373.966 174.677 372.584 173.394 370.906 173.394Z" fill="#E8E8F7"/>
<path d="M381.667 186.82H298.635C296.956 186.82 295.574 188.203 295.574 189.881C295.574 191.559 296.956 192.942 298.635 192.942H381.667C383.345 192.942 384.727 191.559 384.727 189.881C384.629 188.104 383.246 186.82 381.667 186.82Z" fill="#E8E8F7"/>
<path d="M118.848 112.379C120.823 112.379 122.403 110.799 122.403 108.824C122.403 106.85 120.823 105.27 118.848 105.27C116.874 105.27 115.294 106.85 115.294 108.824C115.294 110.799 116.874 112.379 118.848 112.379Z" fill="#FF7A82"/>
<path d="M132.177 112.379C134.152 112.379 135.731 110.799 135.731 108.824C135.731 106.85 134.152 105.27 132.177 105.27C130.202 105.27 128.623 106.85 128.623 108.824C128.623 110.799 130.202 112.379 132.177 112.379Z" fill="#FDB62F"/>
<path d="M145.406 112.379C147.381 112.379 148.961 110.799 148.961 108.824C148.961 106.85 147.381 105.27 145.406 105.27C143.432 105.27 141.852 106.85 141.852 108.824C141.852 110.799 143.432 112.379 145.406 112.379Z" fill="#64A7B0"/>
<path d="M349.382 286.538H307.817V247.145L328.55 232.533L349.283 247.145V286.538H349.382Z" fill="#4E53BA"/>
<path d="M335.955 264.62H321.244V286.538H335.955V264.62Z" fill="#8589DB"/>
<path d="M349.382 247.145H377.421L356.688 232.533H328.748L349.382 247.145Z" fill="#FF5856"/>
<path d="M377.322 247.145H349.382V286.538H377.322V247.145Z" fill="#8589DB"/>
<path d="M189.736 198.668H168.312V178.429L178.974 170.925L189.637 178.429V198.668H189.736Z" fill="#676BC4"/>
<path d="M182.825 187.314H175.223V198.57H182.825V187.314Z" fill="#8589DB"/>
<path d="M189.736 178.33H204.151L193.488 170.826H179.073L189.736 178.33Z" fill="#FF5856"/>
<path d="M204.151 178.33H189.736V198.57H204.151V178.33Z" fill="#8589DB"/>
<path d="M225.575 198.668H204.151V166.186L214.814 158.683L225.477 166.186V198.668H225.575Z" fill="#4E53BA"/>
<path d="M218.664 191.066H211.062V198.668H218.664V191.066Z" fill="#8589DB"/>
<path d="M225.575 166.087H239.989L229.327 158.584H214.912L225.575 166.087Z" fill="#FF7A82"/>
<path d="M239.989 166.087H225.575V198.57H239.989V166.087Z" fill="#8589DB"/>
<path d="M257.465 198.668H239.99V182.082L248.777 175.96L257.564 182.082V198.668H257.465Z" fill="#4E53BA"/>
<path d="M251.837 191.856H245.617V198.57H251.837V191.856Z" fill="#8589DB"/>
<path d="M257.465 182.082H269.214L260.426 175.96H248.678L257.465 182.082Z" fill="#FCB58A"/>
<path d="M269.312 182.082H257.563V198.668H269.312V182.082Z" fill="#8589DB"/>
<path d="M12.9113 335.409C12.7138 335.409 12.6151 335.409 12.4176 335.409C12.1215 335.409 11.8252 335.212 11.6278 334.915C11.4303 334.619 11.3316 334.323 11.4303 334.027C11.8253 331.657 12.4177 329.288 13.2075 326.918C13.3063 326.622 13.5037 326.425 13.7999 326.227C14.0961 326.129 14.3923 326.129 14.6885 326.227C14.9847 326.326 15.1821 326.523 15.3795 326.82C15.4783 327.116 15.4783 327.412 15.3795 327.708C14.5897 329.88 13.9974 332.052 13.7012 334.323C13.7012 334.521 13.6024 334.817 13.4049 335.014C13.4049 335.212 13.2075 335.31 12.9113 335.409Z" fill="#110580"/>
<path d="M215.9 354.957C215.801 354.957 215.603 354.957 215.505 354.957L213.728 354.76C209.581 354.365 205.434 353.97 200.893 353.476C200.695 353.476 200.596 353.378 200.498 353.279C200.399 353.18 200.202 353.081 200.103 352.983C200.004 352.884 199.905 352.687 199.905 352.588C199.905 352.489 199.807 352.292 199.905 352.094C199.905 351.897 200.004 351.798 200.103 351.699C200.202 351.6 200.3 351.403 200.399 351.304C200.498 351.206 200.695 351.107 200.794 351.107C200.893 351.107 201.09 351.008 201.288 351.107C205.73 351.601 209.976 351.996 214.024 352.39L215.801 352.588C216.097 352.588 216.295 352.687 216.591 352.884C216.788 353.082 216.887 353.378 216.986 353.575C216.986 353.871 216.986 354.168 216.788 354.365C216.393 354.76 216.196 354.859 215.9 354.957ZM186.972 351.205C186.774 351.205 186.577 351.205 186.379 351.205C181.542 350.218 176.803 348.935 172.162 347.256C171.965 347.158 171.866 347.158 171.767 347.059C171.669 346.96 171.57 346.862 171.471 346.664C171.372 346.565 171.372 346.368 171.372 346.17C171.372 345.973 171.372 345.874 171.471 345.677C171.57 345.479 171.57 345.38 171.669 345.282C171.767 345.183 171.866 345.084 172.064 344.986C172.261 344.887 172.36 344.887 172.557 344.887C172.755 344.887 172.853 344.887 173.051 344.986C177.592 346.565 182.233 347.849 186.972 348.836C187.268 348.935 187.564 349.132 187.762 349.33C187.959 349.626 187.959 349.922 187.959 350.218C187.959 350.416 187.762 350.613 187.663 350.811C187.367 351.008 187.169 351.107 186.972 351.205ZM159.722 341.333C159.525 341.333 159.426 341.333 159.229 341.333C159.031 341.333 158.933 341.234 158.834 341.135C154.588 338.667 150.54 335.804 146.789 332.546C146.591 332.348 146.394 332.052 146.394 331.756C146.394 331.46 146.493 331.163 146.69 330.867C146.887 330.67 147.184 330.472 147.48 330.472C147.776 330.472 148.072 330.571 148.368 330.768C151.923 333.928 155.872 336.692 160.019 339.062C160.315 339.259 160.512 339.457 160.611 339.753C160.71 340.049 160.611 340.345 160.512 340.641C160.216 341.036 160.019 341.234 159.722 341.333ZM138.199 321.982C138.002 322.08 137.706 322.08 137.508 321.982C137.311 321.883 137.113 321.784 136.916 321.587C133.954 317.539 131.584 313.293 129.61 308.752C129.511 308.653 129.511 308.455 129.511 308.258C129.511 308.061 129.511 307.962 129.61 307.764C129.708 307.666 129.709 307.468 129.906 307.37C130.005 307.271 130.103 307.172 130.301 307.073C130.4 306.975 130.597 306.975 130.795 306.975C130.992 306.975 131.091 306.975 131.288 307.073C131.486 307.172 131.584 307.172 131.683 307.37C131.782 307.468 131.881 307.567 131.979 307.764C133.855 312.108 136.225 316.354 139.088 320.204C139.187 320.303 139.285 320.501 139.285 320.599C139.285 320.797 139.285 320.895 139.285 321.093C139.285 321.29 139.187 321.389 139.088 321.488C138.989 321.587 138.89 321.784 138.792 321.784C138.397 321.883 138.298 321.883 138.199 321.982ZM141.754 305C139.187 305.691 136.521 306.185 133.855 306.481C133.658 306.481 133.559 306.481 133.362 306.481C133.164 306.481 133.065 306.382 132.868 306.283C132.769 306.185 132.572 306.086 132.572 305.889C132.473 305.79 132.473 305.592 132.374 305.395C132.374 305.198 132.374 305.099 132.374 304.901C132.374 304.704 132.473 304.605 132.572 304.506C132.67 304.408 132.769 304.309 132.967 304.21C133.164 304.112 133.263 304.111 133.46 304.111C136.027 303.815 138.594 303.223 141.062 302.532C143.136 301.94 145.209 301.248 147.184 300.458C147.381 300.36 147.48 300.36 147.677 300.36C147.875 300.36 147.974 300.36 148.171 300.458C148.368 300.557 148.467 300.557 148.566 300.755C148.665 300.853 148.763 301.051 148.862 301.15C148.961 301.347 148.961 301.446 148.961 301.643C148.961 301.841 148.961 301.939 148.862 302.137C148.763 302.334 148.665 302.433 148.566 302.532C148.467 302.631 148.27 302.729 148.171 302.729C146.098 303.618 143.926 304.309 141.754 305ZM119.342 306.777C119.243 306.777 119.046 306.777 118.947 306.777C114.702 306.481 110.16 305.889 104.335 304.901C104.137 304.901 104.039 304.803 103.94 304.704C103.841 304.605 103.644 304.506 103.644 304.408C103.545 304.309 103.446 304.112 103.446 304.013C103.446 303.815 103.446 303.717 103.446 303.519C103.446 303.322 103.545 303.223 103.644 303.124C103.743 303.025 103.841 302.828 103.94 302.828C104.039 302.729 104.236 302.63 104.335 302.63C104.532 302.63 104.631 302.63 104.829 302.63C110.555 303.618 114.998 304.112 119.144 304.506C119.441 304.506 119.638 304.704 119.836 304.901C120.033 305.099 120.132 305.395 120.132 305.592C120.132 305.889 120.132 306.185 119.934 306.382C119.836 306.481 119.638 306.678 119.342 306.777ZM160.117 294.93C159.92 295.028 159.722 295.028 159.525 294.93C159.327 294.831 159.13 294.732 159.031 294.634C158.834 294.436 158.636 294.14 158.636 293.844C158.636 293.547 158.735 293.251 159.031 292.955C160.808 291.178 162.487 289.302 163.77 287.13C164.955 285.254 165.745 283.279 166.436 281.206C166.436 281.009 166.535 280.91 166.633 280.811C166.732 280.713 166.831 280.614 167.028 280.515C167.127 280.416 167.325 280.416 167.522 280.416C167.719 280.416 167.818 280.416 168.016 280.416C168.213 280.416 168.312 280.515 168.411 280.614C168.509 280.712 168.608 280.811 168.707 281.009C168.806 281.107 168.806 281.305 168.806 281.502C168.806 281.7 168.806 281.799 168.806 281.996C168.114 284.267 167.226 286.537 165.942 288.512C164.56 290.783 162.783 292.856 160.907 294.732C160.512 294.831 160.315 294.93 160.117 294.93ZM126.944 295.423H126.747C126.45 295.423 126.154 295.423 125.858 295.226C125.562 295.028 125.463 294.732 125.364 294.436C124.575 289.499 124.673 284.464 125.562 279.528C125.661 279.232 125.759 278.935 126.055 278.738C126.352 278.54 126.648 278.541 126.944 278.541C127.24 278.639 127.537 278.738 127.734 279.034C127.931 279.33 127.931 279.626 127.931 279.923C127.043 284.563 127.043 289.302 127.734 294.041C127.833 294.337 127.734 294.633 127.536 294.93C127.536 295.127 127.24 295.324 126.944 295.423ZM90.6115 302.433C90.414 302.433 90.2166 302.433 90.1178 302.433C88.4394 302.137 86.761 301.841 85.0826 301.545C81.8246 301.051 78.7639 300.656 75.802 300.36C75.6045 300.36 75.5058 300.36 75.3084 300.261C75.2096 300.162 75.0123 300.064 74.9135 299.965C74.8148 299.866 74.716 299.669 74.716 299.57C74.716 299.373 74.6173 299.274 74.6173 299.076C74.6173 298.879 74.716 298.78 74.716 298.583C74.8147 298.484 74.9135 298.286 75.0122 298.188C75.111 298.089 75.3085 297.99 75.4072 297.99C75.6046 297.99 75.7034 297.99 75.9008 297.99C78.9615 298.286 82.0221 298.681 85.3789 299.175C87.0573 299.471 88.7357 299.767 90.4141 300.064C90.6115 300.064 90.7103 300.162 90.809 300.261C90.9077 300.36 91.1051 300.459 91.1051 300.557C91.2039 300.656 91.3027 300.853 91.3027 300.952C91.3027 301.15 91.3027 301.248 91.3027 301.446C91.2039 301.643 91.1052 301.841 91.0064 302.038C91.0064 302.137 90.8089 302.236 90.6115 302.433ZM22.3892 316.354C22.093 316.453 21.8956 316.354 21.5995 316.354C21.402 316.255 21.1057 316.058 21.007 315.86C20.9083 315.663 20.8096 315.367 20.8096 315.169C20.8096 314.873 20.9083 314.676 21.1058 314.478C24.4626 310.825 28.4117 307.666 32.7558 305.198C33.052 305 33.3483 305 33.6444 305.099C33.9406 305.197 34.2368 305.395 34.3355 305.691C34.4342 305.79 34.4343 305.987 34.533 306.086C34.533 306.283 34.533 306.382 34.533 306.58C34.533 306.777 34.4342 306.876 34.3355 306.975C34.2368 307.073 34.1381 307.172 33.9407 307.271C29.794 309.64 26.0422 312.504 22.8829 316.058C22.7841 316.058 22.5867 316.157 22.3892 316.354ZM61.6837 299.866H61.3875C56.6485 300.063 51.9095 300.755 47.2692 301.841C46.973 301.841 46.6768 301.841 46.3806 301.643C46.0844 301.446 45.9857 301.248 45.887 300.952C45.7882 300.656 45.8869 300.36 45.9857 300.064C46.0844 299.767 46.3805 299.57 46.6767 299.471C51.4158 298.286 56.3523 297.595 61.2888 297.398C61.585 297.398 61.8812 297.497 62.0787 297.694C62.2761 297.891 62.4735 298.188 62.4735 298.385C62.4735 298.681 62.4735 298.977 62.2761 299.175C62.0786 299.57 61.8812 299.767 61.6837 299.866ZM167.72 268.47C167.423 268.569 167.127 268.47 166.831 268.371C166.535 268.174 166.337 267.976 166.239 267.68C165.153 264.027 162.783 260.967 159.525 258.992C158.834 258.597 158.241 258.301 157.452 258.005C157.254 258.005 157.155 257.906 156.958 257.807C156.859 257.709 156.76 257.61 156.662 257.412C156.563 257.215 156.563 257.116 156.563 256.919C156.563 256.721 156.563 256.622 156.662 256.425C156.76 256.227 156.859 256.129 156.958 256.03C157.057 255.931 157.254 255.833 157.353 255.734C157.55 255.635 157.649 255.635 157.847 255.635C158.044 255.635 158.143 255.734 158.34 255.734C159.13 256.03 159.92 256.425 160.71 256.919C164.461 259.189 167.226 262.744 168.509 266.989C168.608 267.187 168.608 267.285 168.608 267.483C168.608 267.68 168.509 267.779 168.509 267.976C168.411 268.075 168.312 268.273 168.213 268.371C168.114 268.273 167.917 268.371 167.72 268.47ZM132.868 267.581C132.67 267.581 132.473 267.68 132.374 267.581C132.177 267.581 131.979 267.483 131.881 267.384C131.584 267.187 131.486 266.89 131.387 266.594C131.387 266.298 131.387 266.002 131.584 265.706C134.645 261.658 138.693 258.4 143.333 256.326C143.432 256.228 143.629 256.227 143.827 256.227C144.024 256.227 144.123 256.228 144.321 256.326C144.518 256.425 144.617 256.425 144.715 256.623C144.814 256.721 144.913 256.82 145.012 257.017C145.11 257.116 145.11 257.314 145.11 257.511C145.11 257.708 145.11 257.807 145.012 258.005C144.913 258.202 144.814 258.301 144.715 258.399C144.617 258.498 144.419 258.597 144.321 258.696C140.075 260.572 136.323 263.533 133.559 267.285C133.263 267.384 133.065 267.483 132.868 267.581Z" fill="#110580"/>
<path d="M237.127 359.005C236.831 359.104 236.534 359.005 236.238 358.907C234.165 357.919 232.092 357.228 229.821 356.932C229.525 356.833 229.228 356.734 229.031 356.438C228.834 356.142 228.833 355.846 228.833 355.55C228.932 355.254 229.13 354.957 229.327 354.76C229.623 354.562 229.92 354.563 230.216 354.563C232.684 354.957 234.955 355.747 237.226 356.833C237.522 356.932 237.719 357.228 237.818 357.524C237.917 357.821 237.917 358.117 237.818 358.413C237.719 358.61 237.62 358.709 237.522 358.808C237.522 358.808 237.324 358.907 237.127 359.005Z" fill="#110580"/>
</svg>
